HIERARCHY
ROOT Hips
{
	OFFSET 0.000000 87.230942 0.000000
	CHANNELS 6 Xposition Yposition Zposition Xrotation Yrotation Zrotation
	JOINT Pelvis
	{
		OFFSET 0.000000 0.000000 0.000000
		CHANNELS 3 Xrotation Yrotation Zrotation
		JOINT LeftUpLeg
		{
			OFFSET 12.017000 -9.376404 -2.439400
			CHANNELS 3 Xrotation Yrotation Zrotation
			JOINT LeftLeg
			{
				OFFSET -0.007312 -32.846973 2.110600
				CHANNELS 3 Xrotation Yrotation Zrotation
				JOINT LeftFoot
				{
					OFFSET 0.007312 -32.065170 -0.570400
					CHANNELS 3 Xrotation Yrotation Zrotation
					JOINT LeftToeBase
					{
						OFFSET 0.728300 -11.045900 13.180700
						CHANNELS 3 Xrotation Yrotation Zrotation
						End Site
						{
							OFFSET 0.000000 17.212589 0.000000
						}
					}
				}
				JOINT LeftPantLeg
				{
					OFFSET 0.002788 -16.709013 -3.143600
					CHANNELS 3 Xrotation Yrotation Zrotation
					End Site
					{
						OFFSET -0.605125 24.528742 0.000000
					}
				}
			}
			JOINT Left_Butt
			{
				OFFSET -6.630234 1.326584 -3.183700
				CHANNELS 3 Xrotation Yrotation Zrotation
				End Site
				{
					OFFSET -0.498041 20.188049 0.000000
				}
			}
		}
		JOINT RightUpLeg
		{
			OFFSET -11.717000 -9.376404 -2.439400
			CHANNELS 3 Xrotation Yrotation Zrotation
			JOINT RightLeg
			{
				OFFSET -0.003241 -32.846912 2.110600
				CHANNELS 3 Xrotation Yrotation Zrotation
				JOINT RightFoot
				{
					OFFSET 0.003241 -32.065136 -0.570500
					CHANNELS 3 Xrotation Yrotation Zrotation
					JOINT RightToeBase
					{
						OFFSET -0.728300 -11.045901 13.180700
						CHANNELS 3 Xrotation Yrotation Zrotation
						End Site
						{
							OFFSET 0.000000 17.212593 0.000000
						}
					}
				}
				JOINT RightPantLeg
				{
					OFFSET 0.008142 -16.708982 -3.143700
					CHANNELS 3 Xrotation Yrotation Zrotation
					End Site
					{
						OFFSET 0.605088 24.528715 0.000000
					}
				}
			}
			JOINT Right_Butt
			{
				OFFSET 6.630732 1.326584 -3.183700
				CHANNELS 3 Xrotation Yrotation Zrotation
				End Site
				{
					OFFSET 0.498015 20.188240 0.000000
				}
			}
		}
	}
	JOINT Spine
	{
		OFFSET -0.062400 7.848404 3.918300
		CHANNELS 3 Xrotation Yrotation Zrotation
		JOINT Spine1
		{
			OFFSET -0.072800 11.422302 0.713400
			CHANNELS 3 Xrotation Yrotation Zrotation
			JOINT Spine2
			{
				OFFSET -0.083200 13.054001 -1.931600
				CHANNELS 3 Xrotation Yrotation Zrotation
				JOINT Neck
				{
					OFFSET -0.092200 14.121796 -5.138800
					CHANNELS 3 Xrotation Yrotation Zrotation
					JOINT Head
					{
						OFFSET 0.000200 10.447403 -0.842000
						CHANNELS 3 Xrotation Yrotation Zrotation
						JOINT Visor
						{
							OFFSET 0.457100 25.671204 16.550400
							CHANNELS 3 Xrotation Yrotation Zrotation
							End Site
							{
								OFFSET 0.000000 26.061493 0.000000
							}
						}
						JOINT HairMidA
						{
							OFFSET 0.459400 31.585403 8.437400
							CHANNELS 3 Xrotation Yrotation Zrotation
							End Site
							{
								OFFSET 0.000000 26.061493 0.000000
							}
						}
						JOINT HairMidB
						{
							OFFSET 0.464000 33.309204 -8.389700
							CHANNELS 3 Xrotation Yrotation Zrotation
							End Site
							{
								OFFSET 0.000000 26.061493 0.000000
							}
						}
						JOINT HairMidC
						{
							OFFSET 0.466600 27.991196 -17.375099
							CHANNELS 3 Xrotation Yrotation Zrotation
							End Site
							{
								OFFSET 0.000000 26.061493 0.000000
							}
						}
						JOINT HairMidD
						{
							OFFSET 0.467700 17.888092 -21.169500
							CHANNELS 3 Xrotation Yrotation Zrotation
							End Site
							{
								OFFSET 0.000000 26.061493 0.000000
							}
						}
						JOINT HairMidE
						{
							OFFSET 5.325700 3.514603 -14.369699
							CHANNELS 3 Xrotation Yrotation Zrotation
							End Site
							{
								OFFSET 0.000000 26.061493 0.000000
							}
						}
						JOINT HairMidF
						{
							OFFSET -4.394100 3.514603 -14.372400
							CHANNELS 3 Xrotation Yrotation Zrotation
							End Site
							{
								OFFSET 0.000000 26.061493 0.000000
							}
						}
						JOINT HairLeftA
						{
							OFFSET 15.319900 25.746506 2.623300
							CHANNELS 3 Xrotation Yrotation Zrotation
							End Site
							{
								OFFSET 0.000000 26.061493 0.000000
							}
						}
						JOINT HairLeftB
						{
							OFFSET 12.619500 29.289398 -8.731499
							CHANNELS 3 Xrotation Yrotation Zrotation
							End Site
							{
								OFFSET 0.000000 26.061493 0.000000
							}
						}
						JOINT HairLeftC
						{
							OFFSET 15.714800 15.959900 2.909800
							CHANNELS 3 Xrotation Yrotation Zrotation
							End Site
							{
								OFFSET 0.000000 26.061493 0.000000
							}
						}
						JOINT HairLeftD
						{
							OFFSET 16.101700 18.437408 -7.553200
							CHANNELS 3 Xrotation Yrotation Zrotation
							End Site
							{
								OFFSET 0.000000 26.061493 0.000000
							}
						}
						JOINT HairLeftE
						{
							OFFSET 9.731900 17.915009 -18.316799
							CHANNELS 3 Xrotation Yrotation Zrotation
							End Site
							{
								OFFSET 0.000000 26.061493 0.000000
							}
						}
						JOINT HairLeftF
						{
							OFFSET 11.204300 4.953598 -9.668100
							CHANNELS 3 Xrotation Yrotation Zrotation
							End Site
							{
								OFFSET 0.000000 26.061493 0.000000
							}
						}
						JOINT HairRightA
						{
							OFFSET -14.397900 25.746307 2.615100
							CHANNELS 3 Xrotation Yrotation Zrotation
							End Site
							{
								OFFSET 0.000000 26.061493 0.000000
							}
						}
						JOINT HairRightB
						{
							OFFSET -11.691200 29.289200 -8.738199
							CHANNELS 3 Xrotation Yrotation Zrotation
							End Site
							{
								OFFSET 0.000000 26.061493 0.000000
							}
						}
						JOINT HairRightC
						{
							OFFSET -14.792900 15.959702 2.901400
							CHANNELS 3 Xrotation Yrotation Zrotation
							End Site
							{
								OFFSET 0.000000 26.061493 0.000000
							}
						}
						JOINT HairRightD
						{
							OFFSET -15.174000 18.437195 -7.561900
							CHANNELS 3 Xrotation Yrotation Zrotation
							End Site
							{
								OFFSET 0.000000 26.061493 0.000000
							}
						}
						JOINT HairRightE
						{
							OFFSET -8.798200 17.914902 -18.322001
							CHANNELS 3 Xrotation Yrotation Zrotation
							End Site
							{
								OFFSET 0.000000 26.061493 0.000000
							}
						}
						JOINT HairRightF
						{
							OFFSET -10.275200 4.953506 -9.674099
							CHANNELS 3 Xrotation Yrotation Zrotation
							End Site
							{
								OFFSET 0.000000 26.061493 0.000000
							}
						}
					}
				}
				JOINT LeftShoulder
				{
					OFFSET 5.133500 7.341202 -1.867600
					CHANNELS 3 Xrotation Yrotation Zrotation
					JOINT LeftArm
					{
						OFFSET 8.072663 0.936867 -2.176600
						CHANNELS 3 Xrotation Yrotation Zrotation
						JOINT LeftForeArm
						{
							OFFSET 31.271999 0.000000 0.000000
							CHANNELS 3 Xrotation Yrotation Zrotation
							JOINT LeftHand
							{
								OFFSET 31.771030 0.000000 0.000000
								CHANNELS 3 Xrotation Yrotation Zrotation
								JOINT LeftHandThumb1
								{
									OFFSET 2.886520 -2.557846 4.416640
									CHANNELS 3 Xrotation Yrotation Zrotation
									JOINT LeftHandThumb2
									{
										OFFSET 2.371025 -1.368912 1.368911
										CHANNELS 3 Xrotation Yrotation Zrotation
										JOINT LeftHandThumb3
										{
											OFFSET 2.243378 -1.295212 1.295213
											CHANNELS 3 Xrotation Yrotation Zrotation
											End Site
											{
												OFFSET -0.332611 2.876945 0.020015
											}
										}
									}
								}
								JOINT LeftHandIndex1
								{
									OFFSET 8.568985 -0.641945 3.119977
									CHANNELS 3 Xrotation Yrotation Zrotation
									JOINT LeftHandIndex2
									{
										OFFSET 3.348503 0.000000 0.000000
										CHANNELS 3 Xrotation Yrotation Zrotation
										JOINT LeftHandIndex3
										{
											OFFSET 3.314552 0.000000 0.000000
											CHANNELS 3 Xrotation Yrotation Zrotation
											End Site
											{
												OFFSET -1.032898 3.075485 0.678796
											}
										}
									}
								}
								JOINT LeftHandMiddle1
								{
									OFFSET 8.124603 0.000000 0.000000
									CHANNELS 3 Xrotation Yrotation Zrotation
									JOINT LeftHandMiddle2
									{
										OFFSET 4.166275 0.000000 0.000000
										CHANNELS 3 Xrotation Yrotation Zrotation
										JOINT LeftHandMiddle3
										{
											OFFSET 3.018135 0.000000 0.000000
											CHANNELS 3 Xrotation Yrotation Zrotation
											End Site
											{
												OFFSET -1.032700 2.767982 0.617226
											}
										}
									}
								}
								JOINT LeftHandRing1
								{
									OFFSET 8.571686 -0.031357 -2.884048
									CHANNELS 3 Xrotation Yrotation Zrotation
									JOINT LeftHandRing2
									{
										OFFSET 3.671181 0.000000 0.000000
										CHANNELS 3 Xrotation Yrotation Zrotation
										JOINT LeftHandRing3
										{
											OFFSET 2.728851 0.000000 0.000000
											CHANNELS 3 Xrotation Yrotation Zrotation
											End Site
											{
												OFFSET -0.815796 2.539223 0.577389
											}
										}
									}
								}
								JOINT LeftHandPinky1
								{
									OFFSET 7.854515 -0.675232 -5.213020
									CHANNELS 3 Xrotation Yrotation Zrotation
									JOINT LeftHandPinky2
									{
										OFFSET 3.068596 0.000000 0.000000
										CHANNELS 3 Xrotation Yrotation Zrotation
										JOINT LeftHandPinky3
										{
											OFFSET 2.396042 0.000000 0.000000
											CHANNELS 3 Xrotation Yrotation Zrotation
											End Site
											{
												OFFSET -0.524597 2.267998 0.567429
											}
										}
									}
								}
							}
							JOINT LeftSleeve
							{
								OFFSET 19.684509 -0.200119 0.476146
								CHANNELS 3 Xrotation Yrotation Zrotation
								End Site
								{
									OFFSET -0.031017 25.731133 -0.002868
								}
							}
						}
					}
				}
				JOINT RightShoulder
				{
					OFFSET -4.395900 7.341202 -1.870200
					CHANNELS 3 Xrotation Yrotation Zrotation
					JOINT RightArm
					{
						OFFSET -8.071453 0.936867 -2.181100
						CHANNELS 3 Xrotation Yrotation Zrotation
						JOINT RightForeArm
						{
							OFFSET -31.272011 0.000000 0.000000
							CHANNELS 3 Xrotation Yrotation Zrotation
							JOINT RightHand
							{
								OFFSET -31.771019 0.000000 0.000000
								CHANNELS 3 Xrotation Yrotation Zrotation
								JOINT RightHandThumb1
								{
									OFFSET -2.886520 -2.557808 4.416626
									CHANNELS 3 Xrotation Yrotation Zrotation
									JOINT RightHandThumb2
									{
										OFFSET -2.371056 -1.368927 1.368928
										CHANNELS 3 Xrotation Yrotation Zrotation
										JOINT RightHandThumb3
										{
											OFFSET -2.243362 -1.295204 1.295206
											CHANNELS 3 Xrotation Yrotation Zrotation
											End Site
											{
												OFFSET 0.332642 2.876938 0.020047
											}
										}
									}
								}
								JOINT RightHandIndex1
								{
									OFFSET -8.568993 -0.641953 3.120017
									CHANNELS 3 Xrotation Yrotation Zrotation
									JOINT RightHandIndex2
									{
										OFFSET -3.348518 0.000000 0.000000
										CHANNELS 3 Xrotation Yrotation Zrotation
										JOINT RightHandIndex3
										{
											OFFSET -3.314552 0.000000 0.000000
											CHANNELS 3 Xrotation Yrotation Zrotation
											End Site
											{
												OFFSET 1.032898 3.075478 0.678804
											}
										}
									}
								}
								JOINT RightHandMiddle1
								{
									OFFSET -8.124588 0.000000 0.000000
									CHANNELS 3 Xrotation Yrotation Zrotation
									JOINT RightHandMiddle2
									{
										OFFSET -4.166275 0.000000 0.000000
										CHANNELS 3 Xrotation Yrotation Zrotation
										JOINT RightHandMiddle3
										{
											OFFSET -3.018097 0.000000 0.000000
											CHANNELS 3 Xrotation Yrotation Zrotation
											End Site
											{
												OFFSET 1.032700 2.767937 0.617197
											}
										}
									}
								}
								JOINT RightHandRing1
								{
									OFFSET -8.571747 -0.031349 -2.884061
									CHANNELS 3 Xrotation Yrotation Zrotation
									JOINT RightHandRing2
									{
										OFFSET -3.671204 0.000000 0.000000
										CHANNELS 3 Xrotation Yrotation Zrotation
										JOINT RightHandRing3
										{
											OFFSET -2.728874 0.000000 0.000000
											CHANNELS 3 Xrotation Yrotation Zrotation
											End Site
											{
												OFFSET 0.815804 2.539261 0.577413
											}
										}
									}
								}
								JOINT RightHandPinky1
								{
									OFFSET -7.854561 -0.675247 -5.212970
									CHANNELS 3 Xrotation Yrotation Zrotation
									JOINT RightHandPinky2
									{
										OFFSET -3.068550 0.000000 0.000000
										CHANNELS 3 Xrotation Yrotation Zrotation
										JOINT RightHandPinky3
										{
											OFFSET -2.395981 0.000000 0.000000
											CHANNELS 3 Xrotation Yrotation Zrotation
											End Site
											{
												OFFSET 0.524605 2.267952 0.567413
											}
										}
									}
								}
							}
							JOINT RightSleeve
							{
								OFFSET -19.684753 -0.200165 0.476065
								CHANNELS 3 Xrotation Yrotation Zrotation
								End Site
								{
									OFFSET 0.031342 25.731255 -0.002917
								}
							}
						}
					}
				}
				JOINT Hood
				{
					OFFSET 0.369700 14.447800 -5.317800
					CHANNELS 3 Xrotation Yrotation Zrotation
					JOINT Hood1
					{
						OFFSET 0.001700 -5.553802 -5.895100
						CHANNELS 3 Xrotation Yrotation Zrotation
						JOINT Hood2
						{
							OFFSET -0.000200 -8.380501 0.763600
							CHANNELS 3 Xrotation Yrotation Zrotation
							End Site
							{
								OFFSET 0.000000 8.415215 0.000000
							}
						}
					}
				}
				JOINT Left_Breast
				{
					OFFSET 5.682500 3.120102 3.188800
					CHANNELS 3 Xrotation Yrotation Zrotation
					End Site
					{
						OFFSET 0.000000 10.528564 0.000000
					}
				}
				JOINT Right_Breast
				{
					OFFSET -4.947600 3.120102 3.185900
					CHANNELS 3 Xrotation Yrotation Zrotation
					End Site
					{
						OFFSET 0.000000 10.528564 0.000000
					}
				}
				JOINT Whistle
				{
					OFFSET 0.368200 11.471298 0.095400
					CHANNELS 3 Xrotation Yrotation Zrotation
					JOINT Whistle1
					{
						OFFSET -0.002000 -6.349899 7.479800
						CHANNELS 3 Xrotation Yrotation Zrotation
						JOINT Whistle2
						{
							OFFSET -0.001300 -8.217598 4.717600
							CHANNELS 3 Xrotation Yrotation Zrotation
							End Site
							{
								OFFSET 0.000000 9.475479 0.000000
							}
						}
					}
				}
			}
		}
		JOINT Belly
		{
			OFFSET 0.212400 1.593002 3.163700
			CHANNELS 3 Xrotation Yrotation Zrotation
			End Site
			{
				OFFSET 0.000000 7.496635 0.000000
			}
		}
	}
	JOINT FitGrandmaFacialAnim_Joint
	{
		OFFSET 1.150000 -86.211197 -1.220100
		CHANNELS 3 Xrotation Yrotation Zrotation
		End Site
		{
			OFFSET 0.000000 31.666618 0.000000
		}
	}
}
MOTION
Frames: 4
Frame Time: 0.016667
-2.596027 73.169357 1.969004 11.676254 -49.425964 11.279146 0.000000 0.000001 -0.000000 -62.309951 28.878002 43.416907 47.636905 -21.391487 3.308662 -2.466331 1.388782 -10.658876 0.000000 -0.000000 -0.000000 -0.000000 0.000001 -0.000001 -0.000002 0.000000 -0.000001 -29.833716 -1.493200 -26.649723 55.567168 3.695531 -6.881565 -32.972465 -4.594154 25.477017 -0.000000 0.000004 0.000000 -0.000003 0.000000 0.000003 0.000002 -0.000001 0.000001 10.972991 2.772242 -2.041638 6.100710 5.566513 -4.284677 -5.786923 6.328151 -3.046182 2.318696 9.363329 -0.265342 -4.146674 23.161954 -3.523375 -0.000000 -0.000000 0.000000 -0.000000 -0.000000 0.000000 -0.000000 -0.000000 0.000000 -0.000000 -0.000000 0.000000 -0.000000 -0.000000 0.000000 -0.000000 -0.000000 0.000000 -0.000000 -0.000000 0.000000 -0.000000 -0.000000 0.000000 -0.000000 -0.000000 0.000000 -0.000000 -0.000000 0.000000 -0.000000 -0.000000 0.000000 -0.000000 -0.000000 0.000000 -0.000000 -0.000000 0.000000 -0.000000 -0.000000 0.000000 -0.000000 -0.000000 0.000000 -0.000000 -0.000000 0.000000 -0.000000 -0.000000 0.000000 -0.000000 -0.000000 0.000000 -0.000000 -0.000000 0.000000 -1.875345 -16.181693 -2.870491 -10.644671 2.164697 -45.510595 -22.862388 -25.786261 -15.871731 2.491055 -2.511845 6.860511 18.457953 -9.513805 13.216578 -1.150185 11.255345 -8.400812 0.000003 -0.000002 0.000002 -1.232786 -5.771932 -0.192335 0.133937 -0.197647 -4.602108 0.000002 -0.000001 0.000004 1.884752 4.663356 -4.597412 0.476679 -1.009832 -12.986455 -0.000001 0.000002 -0.000001 3.024633 7.938947 -14.103463 -0.708014 -0.566221 -18.895766 -0.000000 -0.000003 0.000001 2.010388 6.305961 -22.386560 -0.815363 -0.210803 -16.746487 0.000002 0.000001 0.000001 0.000003 0.000001 -0.000001 -5.074600 24.343694 1.482627 6.642398 -34.733701 57.610501 -21.031976 44.833836 19.961655 -0.087306 35.608495 7.474340 55.149550 18.649557 -29.698267 -0.442537 -14.180595 7.313149 -0.000001 0.000001 -0.000000 5.673404 7.585025 36.844147 1.050481 3.824494 68.900244 0.000001 -0.000002 0.000003 -0.125693 1.886096 45.000749 -1.168985 3.204685 68.417650 0.000001 0.000000 -0.000002 -5.311965 1.216651 58.508773 -0.745228 1.667579 48.011305 0.000000 0.000000 -0.000001 -7.756785 -9.376481 47.263973 -0.526021 1.541636 45.600532 0.000001 0.000001 -0.000003 -0.000000 -0.000000 -0.000002 0.000003 -0.000000 0.000000 0.000003 -0.000000 0.000000 0.000003 -0.000000 0.000000 0.000003 -0.000000 0.000000 0.000003 -0.000000 0.000000 0.000002 -0.000000 0.000000 0.000001 0.000001 0.000000 0.000001 0.000001 0.000000 0.000001 -0.000001 -0.000000 0.000000 0.000001 -0.000000 
-2.842477 72.918922 2.226748 17.335326 -51.170159 16.017180 -0.000000 0.000001 -0.000000 -63.888743 28.065939 43.328142 48.398912 -20.349381 3.484805 -3.690009 3.589398 -11.931164 0.000000 -0.000000 -0.000000 0.000000 0.000002 -0.000001 -0.000002 -0.000000 -0.000000 -34.018420 0.404047 -26.164751 55.610000 3.977417 -6.884143 -32.295030 -3.750652 25.548533 0.000000 0.000000 0.000000 -0.000000 0.000001 -0.000000 0.000001 -0.000002 0.000000 6.599988 3.164722 -1.423405 4.905263 6.087651 -4.052460 -6.993464 6.770101 -2.740918 -0.991444 3.774199 0.062745 -2.765973 16.503472 -2.144350 0.000001 0.000001 0.000000 0.000001 0.000001 0.000000 0.000001 0.000001 0.000000 0.000001 0.000001 0.000000 0.000001 0.000001 0.000000 0.000001 0.000001 0.000000 0.000001 0.000001 0.000000 0.000001 0.000001 0.000000 0.000001 0.000001 0.000000 0.000001 0.000001 0.000000 0.000001 0.000001 0.000000 0.000001 0.000001 0.000000 0.000001 0.000001 0.000000 0.000001 0.000001 0.000000 0.000001 0.000001 0.000000 0.000001 0.000001 0.000000 0.000001 0.000001 0.000000 0.000001 0.000001 0.000000 0.000001 0.000001 0.000000 -2.019446 -12.678704 -1.080112 -6.222588 2.408208 -48.336074 -21.610085 -26.352750 -14.989786 2.965864 -1.783786 8.412936 18.064694 -9.416807 14.872080 -0.773605 11.739616 -8.473096 0.000001 0.000002 -0.000002 -1.184299 -5.275854 -1.333404 0.131707 -0.224509 -5.199121 -0.000001 0.000004 0.000001 1.542719 3.201558 -5.955558 0.477926 -1.005702 -12.916740 -0.000002 -0.000001 0.000000 2.085929 6.252227 -15.478201 -0.700607 -0.534732 -18.124351 0.000000 0.000000 -0.000001 1.342388 5.609886 -22.650034 -0.814044 -0.196022 -16.362343 -0.000000 -0.000002 -0.000001 0.000003 0.000001 -0.000002 -5.292527 23.824658 2.533290 6.218725 -35.596132 55.188123 -22.397628 43.628219 20.943862 3.828312 34.139225 9.201644 55.149550 18.649558 -29.698264 -0.442538 -14.180581 7.313147 -0.000002 -0.000001 -0.000001 5.673407 7.585019 36.844147 1.050483 3.824500 68.900244 -0.000001 -0.000000 -0.000000 -0.125698 1.886095 45.000749 -1.168985 3.204685 68.417650 0.000000 0.000000 -0.000000 -5.311965 1.216650 58.508780 -0.745228 1.667580 48.011305 0.000001 -0.000003 0.000004 -7.756784 -9.376482 47.263973 -0.526020 1.541639 45.600532 -0.000000 0.000004 -0.000002 -0.000000 0.000001 0.000001 0.000001 -0.000001 0.000001 0.000001 -0.000001 0.000001 0.000001 -0.000001 0.000001 0.000001 -0.000001 0.000001 0.000001 -0.000001 0.000001 0.000001 -0.000001 0.000000 0.000001 -0.000003 0.000001 0.000001 -0.000003 0.000001 0.000000 0.000001 0.000001 -0.000000 0.000001 -0.000000 
-3.289024 72.565857 2.753303 23.044324 -51.150542 21.240382 0.000002 -0.000000 -0.000000 -65.684338 27.702347 42.311871 49.088764 -19.719647 3.585056 -4.791798 5.277878 -12.689572 -0.000000 -0.000002 0.000000 0.000000 -0.000001 0.000000 -0.000001 -0.000002 0.000000 -37.393284 2.255817 -26.291659 55.716616 3.744315 -6.935787 -32.219211 -3.927673 26.043619 -0.000000 0.000002 0.000000 -0.000000 0.000000 0.000001 -0.000001 0.000003 -0.000001 1.926544 3.160739 -0.628860 3.783559 5.915597 -3.917739 -8.078004 6.563207 -2.613884 -5.256413 -4.314876 1.768452 -0.964760 7.189369 -0.581164 0.000000 -0.000002 0.000000 0.000000 -0.000002 0.000000 0.000000 -0.000002 0.000000 0.000000 -0.000002 0.000000 0.000000 -0.000002 0.000000 0.000000 -0.000002 0.000000 0.000000 -0.000002 0.000000 0.000000 -0.000002 0.000000 0.000000 -0.000002 0.000000 0.000000 -0.000002 0.000000 0.000000 -0.000002 0.000000 0.000000 -0.000002 0.000000 0.000000 -0.000002 0.000000 0.000000 -0.000002 0.000000 0.000000 -0.000002 0.000000 0.000000 -0.000002 0.000000 0.000000 -0.000002 0.000000 0.000000 -0.000002 0.000000 0.000000 -0.000002 0.000000 -2.338700 -9.267080 0.477312 0.012348 1.464317 -49.562233 -21.267387 -30.655706 -14.789835 4.369194 -3.947323 9.995075 17.604326 -9.261281 16.773915 -0.387776 12.245205 -8.536497 -0.000001 0.000002 0.000000 -1.103390 -4.719073 -2.651489 0.129738 -0.245656 -5.669177 0.000001 -0.000000 0.000001 1.185347 1.599528 -7.313241 0.484447 -0.983403 -12.540479 -0.000001 -0.000003 0.000002 1.012815 4.393983 -16.937186 -0.690355 -0.487691 -16.975141 0.000001 0.000001 0.000001 0.513794 4.787132 -22.957003 -0.812384 -0.176161 -15.846281 -0.000001 -0.000001 -0.000002 0.000004 -0.000001 0.000001 -5.306081 22.788513 3.827941 7.662534 -36.585679 53.035524 -27.334615 45.566494 26.031909 8.948023 30.429292 10.709158 55.149550 18.649557 -29.698267 -0.442540 -14.180588 7.313147 -0.000001 0.000002 0.000001 5.673407 7.585021 36.844137 1.050485 3.824493 68.900244 -0.000002 0.000000 -0.000002 -0.125695 1.886095 45.000749 -1.168984 3.204686 68.417657 -0.000001 0.000001 0.000001 -5.311963 1.216647 58.508780 -0.745226 1.667576 48.011305 0.000001 -0.000001 0.000001 -7.756784 -9.376482 47.263963 -0.526023 1.541638 45.600529 0.000004 0.000000 0.000001 -0.000003 0.000001 -0.000002 -0.000000 -0.000001 0.000000 -0.000000 -0.000001 0.000000 -0.000000 -0.000001 0.000000 -0.000000 -0.000001 0.000000 -0.000000 -0.000001 0.000000 -0.000000 -0.000001 0.000001 -0.000001 -0.000001 0.000000 -0.000001 -0.000001 0.000000 -0.000001 -0.000001 0.000000 0.000002 -0.000000 -0.000000 
-3.884981 72.221886 3.402099 27.372195 -49.733869 25.537627 -0.000000 -0.000001 -0.000000 -67.195756 27.883709 40.668849 49.328453 -19.548307 3.589664 -5.561310 6.284180 -12.995037 0.000000 -0.000002 -0.000000 -0.000000 -0.000001 0.000001 -0.000001 0.000000 -0.000001 -39.506415 3.798732 -27.020457 55.897298 3.171222 -6.990506 -32.695655 -4.883972 26.708721 0.000000 0.000003 0.000000 -0.000001 -0.000003 0.000007 0.000001 -0.000003 -0.000000 -1.832405 2.717280 0.051883 3.102664 5.088905 -3.978474 -8.666748 5.787710 -2.761521 -8.158454 -13.179530 6.213846 0.797486 -2.094654 0.411620 -0.000000 0.000001 0.000001 -0.000000 0.000001 0.000001 -0.000000 0.000001 0.000001 -0.000000 0.000001 0.000001 -0.000000 0.000001 0.000001 -0.000000 0.000001 0.000001 -0.000000 0.000001 0.000001 -0.000000 0.000001 0.000001 -0.000000 0.000001 0.000001 -0.000000 0.000001 0.000001 -0.000000 0.000001 0.000001 -0.000000 0.000001 0.000001 -0.000000 0.000001 0.000001 -0.000000 0.000001 0.000001 -0.000000 0.000001 0.000001 -0.000000 0.000001 0.000001 -0.000000 0.000001 0.000001 -0.000000 0.000001 0.000001 -0.000000 0.000001 0.000001 -2.777915 -7.561327 3.202647 6.336172 0.679712 -51.194276 -20.920429 -35.100889 -14.588104 5.409421 -8.008570 10.884727 17.109796 -9.079825 18.724415 0.002454 12.754338 -8.604149 0.000002 0.000002 -0.000000 -0.983820 -4.156244 -4.002701 0.127632 -0.266919 -6.142137 0.000003 0.000001 -0.000001 0.803383 -0.034188 -8.704967 0.492087 -0.956440 -12.087584 -0.000000 0.000003 -0.000006 -0.132067 2.515807 -18.482072 -0.680300 -0.436489 -15.731491 -0.000002 0.000002 0.000003 -0.362783 3.941777 -23.293197 -0.810866 -0.154964 -15.297259 0.000001 -0.000000 -0.000001 0.000004 0.000001 0.000001 -5.506174 20.977712 6.822259 8.426905 -38.300819 48.596407 -35.680099 50.798931 35.841233 12.703977 25.022434 12.320481 55.149553 18.649558 -29.698267 -0.442536 -14.180586 7.313150 -0.000001 -0.000002 -0.000000 5.673403 7.585024 36.844141 1.050485 3.824494 68.900250 0.000000 -0.000001 0.000001 -0.125697 1.886090 45.000739 -1.168982 3.204687 68.417650 0.000003 0.000001 -0.000002 -5.311964 1.216646 58.508780 -0.745228 1.667577 48.011305 0.000000 -0.000001 0.000003 -7.756785 -9.376482 47.263966 -0.526023 1.541638 45.600532 -0.000001 -0.000002 0.000000 -0.000004 -0.000001 0.000001 -0.000000 0.000004 -0.000001 -0.000000 0.000004 -0.000001 -0.000000 0.000004 -0.000001 -0.000000 0.000004 -0.000001 -0.000000 0.000004 -0.000001 -0.000001 0.000004 -0.000000 -0.000000 0.000002 0.000000 -0.000000 0.000002 0.000000 -0.000000 0.000001 -0.000000 -0.000000 -0.000001 -0.000000 
